#!OML:ASF Y:\EmotionMaleHayes\Project 1\Capture day 1\Session 1\Male1.ASF
:FULLY-SPECIFIED
:DEGREES
771
root 18.143 16.9561 -11.1018 -184.631 59.297 -180.365
lowerback 9.24373 3.51915 4.48831
upperback 2.98865 5.21968 0.306162
thorax -1.69081 2.67048 -2.72739
lowerneck -18.8963 -7.49812 -2.98176
upperneck 27.5958 -11.5383 7.95549
head 13.0828 -4.01469 1.67736
rclavicle -8.49804e-014 7.95139e-016
rhumerus -24.0201 16.776 -80.0301
rradius 58.1775
rwrist -3.81972
rhand -8.87445 -30.6945
rfingers 7.12502
rthumb 17.0673 -59.9648
lclavicle -8.49804e-014 7.95139e-016
lhumerus -47.588 14.2206 71.9709
lradius 16.6266
lwrist -36.4327
lhand -2.97263 -24.8335
lfingers 7.12502
lthumb 22.7402 3.84636
rfemur 13.2971 2.41856 30.6584
rtibia 9.09532
rfoot -17.2333 8.54943
rtoes 26.246
lfemur -18.5262 4.36861 -9.78383
ltibia 43.3279
lfoot -9.11333 5.92399
ltoes -11.0425
772
root 18.2488 16.9443 -11.1938 -183.964 60.4883 -179.619
lowerback 9.35882 3.70866 4.87398
upperback 3.05719 5.51848 0.439826
thorax -1.63599 2.82455 -2.83478
lowerneck -18.8816 -7.42176 -3.14431
upperneck 27.4987 -11.3529 7.86397
head 13.0292 -3.97687 1.69959
rclavicle -9.36773e-014 1.74931e-014
rhumerus -22.9946 17.3064 -79.4834
rradius 58.3307
rwrist -4.05812
rhand -9.18546 -30.4771
rfingers 7.12502
rthumb 16.7679 -59.773
lclavicle -9.36773e-014 1.74931e-014
lhumerus -48.4683 14.3292 71.8561
lradius 17.3011
lwrist -35.6092
lhand -2.52994 -23.6495
lfingers 7.12502
lthumb 23.165 4.9776
rfemur 13.6751 2.61307 30.8987
rtibia 9.3755
rfoot -17.5038 9.63226
rtoes 26.6407
lfemur -18.8027 4.43793 -9.11244
ltibia 40.6307
lfoot -9.09463 6.98235
ltoes -12.6133
773
root 18.3611 16.9305 -11.2919 -183.338 61.4388 -178.912
lowerback 9.43916 3.87434 5.34607
upperback 3.0998 5.7887 0.472922
thorax -1.56922 2.96468 -3.08817
lowerneck -18.8787 -7.37454 -3.13301
upperneck 27.4599 -11.2695 7.79327
head 13.0001 -3.9544 1.68442
rclavicle -5.86415e-014 1.39149e-014
rhumerus -22.0022 17.8827 -78.9757
rradius 58.3243
rwrist -4.55261
rhand -9.69771 -30.3006
rfingers 7.12502
rthumb 16.2747 -59.6375
lclavicle -5.86415e-014 1.39149e-014
lhumerus -49.1114 15.4229 70.6408
lradius 17.0398
lwrist -36.4955
lhand -2.61007 -25.5642
lfingers 7.12502
lthumb 23.0881 3.07258
rfemur 14.667 3.61531 31.6013
rtibia 8.74158
rfoot -17.7065 9.43854
rtoes 26.0797
lfemur -18.9183 4.35508 -8.51893
ltibia 37.7085
lfoot -9.28108 7.12489
ltoes -12.2247
774
root 18.4739 16.9073 -11.3935 -182.743 62.3872 -178.532
lowerback 9.30002 4.05426 5.70917
upperback 3.03665 6.0459 0.392006
thorax -1.48754 3.09348 -3.38302
lowerneck -18.9227 -7.54488 -3.46842
upperneck 27.5115 -11.5162 8.12694
head 13.0983 -4.04688 1.82265
rclavicle -1.16836e-013 6.36111e-015
rhumerus -21.0255 18.3356 -78.6003
rradius 58.161
rwrist -4.92913
rhand -9.68596 -30.2312
rfingers 7.12502
rthumb 16.286 -59.5672
lclavicle -1.16836e-013 6.36111e-015
lhumerus -49.688 15.0107 70.6385
lradius 17.2618
lwrist -35.4339
lhand -2.6197 -24.3758
lfingers 7.12502
lthumb 23.0789 4.26211
rfemur 14.9223 3.72211 31.5612
rtibia 8.89894
rfoot -18.0267 10.291
rtoes 25.4576
lfemur -19.111 4.32448 -8.15647
ltibia 34.4672
lfoot -9.17284 7.42991
ltoes -11.6847
775
root 18.5871 16.8863 -11.5013 -182.753 63.2038 -178.793
lowerback 9.30533 4.17792 5.85904
upperback 2.87068 6.21386 0.187421
thorax -1.60676 3.16664 -3.69904
lowerneck -18.6855 -7.47904 -3.43179
upperneck 27.6547 -11.417 8.08058
head 13.0943 -4.00233 1.82687
rclavicle 4.72611e-014 -1.19271e-015
rhumerus -20.427 18.4523 -78.4972
rradius 58.1103
rwrist -4.86004
rhand -9.67442 -29.9622
rfingers 7.12502
rthumb 16.2972 -59.2974
lclavicle 4.72611e-014 -1.19271e-015
lhumerus -50.3629 14.0204 71.1493
lradius 17.7214
lwrist -33.9732
lhand -2.63147 -24.7108
lfingers 7.12502
lthumb 23.0676 3.92852
rfemur 15.3381 3.69125 31.0901
rtibia 8.86395
rfoot -18.1593 11.2503
rtoes 25.7413
lfemur -19.118 3.9497 -8.21884
ltibia 30.9456
lfoot -8.82294 8.16358
ltoes -11.0675
776
root 18.7037 16.8599 -11.6053 -182.697 64.1 -179.146
lowerback 9.18823 4.30701 5.82303
upperback 2.62706 6.36235 -0.0117078
thorax -1.76087 3.22444 -3.89931
lowerneck -18.4764 -7.33513 -3.23069
upperneck 27.7298 -11.2092 7.87499
head 13.0362 -3.92018 1.75957
rclavicle -6.94007e-014 -3.57812e-015
rhumerus -19.8769 18.7854 -78.475
rradius 58.0718
rwrist -4.85308
rhand -10.0768 -29.7246
rfingers 7.12502
rthumb 15.9097 -59.0911
lclavicle -6.94007e-014 -3.57812e-015
lhumerus -51.1622 13.6131 71.0435
lradius 18.0788
lwrist -33.2344
lhand -2.23644 -24.6342
lfingers 7.12502
lthumb 23.4466 3.95725
rfemur 15.644 3.87042 30.6616
rtibia 8.77225
rfoot -18.2113 12.1024
rtoes 26.8522
lfemur -19.2836 3.6015 -8.24785
ltibia 27.4695
lfoot -8.53193 8.62266
ltoes -9.19632
777
root 18.8314 16.8454 -11.7057 -182.735 64.4788 -179.112
lowerback 9.20387 4.24275 5.91246
upperback 2.70338 6.28554 -0.0560262
thorax -1.68329 3.19234 -3.98481
lowerneck -18.5916 -7.38452 -3.45531
upperneck 27.7091 -11.2398 7.93358
head 13.0731 -3.9529 1.80839
rclavicle 3.23522e-014 5.56597e-015
rhumerus -18.9291 19.1831 -78.1371
rradius 57.9938
rwrist -5.08735
rhand -10.4902 -29.7755
rfingers 7.12502
rthumb 15.5116 -59.1733
lclavicle 3.23522e-014 5.56597e-015
lhumerus -51.6268 12.8871 71.5405
lradius 18.5441
lwrist -32.0265
lhand -1.89555 -24.5779
lfingers 7.12502
lthumb 23.7736 3.9714
rfemur 16.5737 4.08544 30.6685
rtibia 8.40545
rfoot -18.4821 12.1762
rtoes 27.2272
lfemur -18.9923 2.91214 -8.0919
ltibia 23.9893
lfoot -8.21412 8.82767
ltoes -6.2758
778
root 18.9533 16.8133 -11.7975 -181.713 65.6957 -178.426
lowerback 8.83203 4.54341 6.1992
upperback 2.71143 6.68203 -0.0315221
thorax -1.3961 3.39963 -4.10892
lowerneck -18.7945 -7.36346 -3.58671
upperneck 27.756 -11.1764 7.91724
head 13.1375 -3.93828 1.82848
rclavicle 8.92046e-015 6.75868e-015
rhumerus -18.0488 19.0205 -77.6957
rradius 58.0559
rwrist -5.11376
rhand -10.7817 -29.7486
rfingers 7.12502
rthumb 15.2308 -59.1679
lclavicle 8.92046e-015 6.75868e-015
lhumerus -51.8628 12.9502 71.4061
lradius 18.642
lwrist -31.8891
lhand -1.69942 -24.5801
lfingers 7.12502
lthumb 23.9617 3.94464
rfemur 16.6452 4.64277 30.8794
rtibia 8.66883
rfoot -18.79 12.8468
rtoes 27.0856
lfemur -19.1037 2.97092 -7.41953
ltibia 20.7363
lfoot -7.85385 9.28507
ltoes -4.88126
779
root 19.0729 16.7773 -11.894 -180.443 66.8104 -177.669
lowerback 8.22388 4.7787 6.43705
upperback 2.67526 6.9665 -0.00108777
thorax -1.04091 3.5514 -4.16516
lowerneck -18.9325 -7.34583 -3.83783
upperneck 27.8115 -11.0961 7.9602
head 13.2031 -3.92261 1.89654
rclavicle 3.28989e-014 4.37326e-015
rhumerus -17.3187 18.8192 -77.3946
rradius 58.1597
rwrist -4.79142
rhand -10.7589 -29.669
rfingers 7.12502
rthumb 15.2527 -59.0866
lclavicle 3.28989e-014 4.37326e-015
lhumerus -52.1356 13.9694 70.4584
lradius 18.4386
lwrist -32.813
lhand -1.51049 -25.0224
lfingers 7.12502
lthumb 24.1428 3.47839
rfemur 16.527 5.01868 30.979
rtibia 8.89208
rfoot -18.9826 13.596
rtoes 26.9235
lfemur -19.4919 2.75432 -6.78322
ltibia 17.7623
lfoot -7.59296 9.62951
ltoes -5.48771
780
root 19.1961 16.7579 -11.9976 -180.237 67.3517 -177.585
lowerback 8.07068 4.7229 6.52284
upperback 2.6898 6.88458 -0.0781428
thorax -0.930628 3.51538 -4.26931
lowerneck -18.8484 -7.41443 -3.88062
upperneck 27.7799 -11.256 8.20653
head 13.2078 -3.96564 1.9724
rclavicle -8.52041e-014 4.37326e-015
rhumerus -16.6642 18.9991 -77.3334
rradius 58.1197
rwrist -4.53319
rhand -10.4506 -29.6811
rfingers 7.12502
rthumb 15.5496 -59.0759
lclavicle -8.52041e-014 4.37326e-015
lhumerus -52.4446 13.552 70.969
lradius 18.7945
lwrist -32.5242
lhand -2.18066 -24.2701
lfingers 7.12502
lthumb 23.5001 4.31444
rfemur 17.062 4.99784 30.7592
rtibia 8.87561
rfoot -19.1136 14.06
rtoes 27.1231
lfemur -19.4368 1.89241 -6.60668
ltibia 14.9814
lfoot -7.53192 9.70694
ltoes -7.85503
